<svg width="1682" height="587" viewBox="0 0 1682 587" fill="none" xmlns="http://www.w3.org/2000/svg">
<path d="M955 170V181.5C955 206.167 948.333 228.667 935 249C922 269.333 904.5 284.667 882.5 295C904.5 305.333 922 320.667 935 341C948.333 361.333 955 383.833 955 408.5V420H916V408.5C916 396.5 913.667 385.333 909 375C904.667 364.333 898.5 355.167 890.5 347.5C882.833 339.5 873.833 333.333 863.5 329C853.167 324.333 842 322 830 322C818 322 806.833 324.333 796.5 329C786.167 333.333 777 339.5 769 347.5C761.333 355.167 755.167 364.333 750.5 375C746.167 385.333 744 396.5 744 408.5V420H705V408.5C705 383.833 711.5 361.333 724.5 341C737.833 320.667 755.5 305.333 777.5 295C755.5 284.667 737.833 269.333 724.5 249C711.5 228.667 705 206.167 705 181.5V170H744V181.5C744 193.5 746.167 204.667 750.5 215C755.167 225.333 761.333 234.5 769 242.5C777 250.167 786.167 256.333 796.5 261C806.833 265.333 818 267.5 830 267.5C842 267.5 853.167 265.333 863.5 261C873.833 256.333 882.833 250.167 890.5 242.5C898.5 234.5 904.667 225.333 909 215C913.667 204.667 916 193.5 916 181.5V170H955ZM1219 420H1180V295C1180 284.333 1178.17 274.333 1174.5 265C1171.17 255.667 1166.33 247.333 1160 240C1153.67 232.333 1146 226 1137 221C1128.33 215.667 1118.83 212 1108.5 210C1098.17 208.333 1088 208.5 1078 210.5C1068.33 212.167 1059.17 215.5 1050.5 220.5C1042.17 225.5 1034.67 231.833 1028 239.5C1021.67 247.167 1016.67 256 1013 266C1009.67 276 1008 286 1008 296C1008 306 1009.67 315.667 1013 325C1016.67 334.333 1021.67 343 1028 351C1034.67 358.667 1042.5 365 1051.5 370C1064.83 377.333 1079 381 1094 381C1106.67 381 1118.67 378.333 1130 373C1141.67 367.667 1151.83 359.833 1160.5 349.5V400.5C1140.17 413.5 1117.83 420 1093.5 420C1077.83 420 1062.67 417.167 1048 411.5C1033.33 405.833 1020 397.333 1008 386C997.667 376.333 989.333 365.333 983 353C976.667 340.667 972.5 327.833 970.5 314.5C968.5 301.167 968.5 287.667 970.5 274C972.833 260 977.5 246.833 984.5 234.5C995.833 214.167 1011.17 198.333 1030.5 187C1050.17 175.667 1071.17 170 1093.5 170C1110.83 170 1127 173.333 1142 180C1157.33 186.333 1170.67 195.167 1182 206.5C1193.33 217.5 1202.33 230.667 1209 246C1215.67 261 1219 277.333 1219 295V420ZM1280.86 209.5V295C1280.86 307 1283.02 318.167 1287.36 328.5C1292.02 338.833 1298.19 348 1305.86 356C1313.86 363.667 1323.02 369.833 1333.36 374.5C1343.69 378.833 1354.86 381 1366.86 381V420C1349.52 420 1333.19 416.833 1317.86 410.5C1302.86 403.833 1289.69 394.833 1278.36 383.5C1267.02 372.167 1258.02 359 1251.36 344C1245.02 328.667 1241.86 312.333 1241.86 295V31H1280.86V170.5H1366.86V209.5H1280.86ZM1640.87 420H1601.88V295C1601.88 284.333 1600.04 274.333 1596.38 265C1593.04 255.667 1588.21 247.333 1581.88 240C1575.54 232.333 1567.88 226 1558.88 221C1550.21 215.667 1540.71 212 1530.38 210C1520.04 208.333 1509.88 208.5 1499.88 210.5C1490.21 212.167 1481.04 215.5 1472.38 220.5C1464.04 225.5 1456.54 231.833 1449.88 239.5C1443.54 247.167 1438.54 256 1434.88 266C1431.54 276 1429.88 286 1429.88 296C1429.88 306 1431.54 315.667 1434.88 325C1438.54 334.333 1443.54 343 1449.88 351C1456.54 358.667 1464.38 365 1473.38 370C1486.71 377.333 1500.88 381 1515.88 381C1528.54 381 1540.54 378.333 1551.88 373C1563.54 367.667 1573.71 359.833 1582.38 349.5V400.5C1562.04 413.5 1539.71 420 1515.38 420C1499.71 420 1484.54 417.167 1469.88 411.5C1455.21 405.833 1441.88 397.333 1429.88 386C1419.54 376.333 1411.21 365.333 1404.88 353C1398.54 340.667 1394.38 327.833 1392.38 314.5C1390.38 301.167 1390.38 287.667 1392.38 274C1394.71 260 1399.38 246.833 1406.38 234.5C1417.71 214.167 1433.04 198.333 1452.38 187C1472.04 175.667 1493.04 170 1515.38 170C1532.71 170 1548.88 173.333 1563.88 180C1579.21 186.333 1592.54 195.167 1603.88 206.5C1615.21 217.5 1624.21 230.667 1630.88 246C1637.54 261 1640.87 277.333 1640.87 295V420Z" fill="#161616"/>
<circle cx="293.5" cy="293.5" r="293.5" fill="black"/>
<path d="M419.997 479.093C445.458 453.692 462.493 421.931 467.355 390.798C472.217 359.665 464.507 331.709 445.923 313.081L349.924 408.855L419.997 479.093Z" fill="white"/>
<path d="M169.003 479.642C143.542 454.241 126.507 422.48 121.645 391.347C116.783 360.214 124.493 332.258 143.077 313.63L239.076 409.404L169.003 479.642Z" fill="white"/>
<path d="M248.611 207.735C274.071 233.136 288.399 267.61 288.441 303.575C288.483 339.539 274.236 374.047 248.835 399.508L152.837 303.733L248.611 207.735Z" fill="white"/>
<path d="M152.846 303.748C127.386 278.347 113.059 243.872 113.017 207.908C112.975 171.943 127.221 137.435 152.622 111.975L248.621 207.749L152.846 303.748Z" fill="white"/>
<path d="M340.388 207.186C314.928 232.587 300.601 267.062 300.559 303.026C300.517 338.99 314.763 373.498 340.164 398.959L436.163 303.185L340.388 207.186Z" fill="white"/>
<path d="M436.153 303.198C461.613 277.797 475.94 243.322 475.982 207.358C476.024 171.394 461.778 136.885 436.377 111.425L340.378 207.199L436.153 303.198Z" fill="white"/>
</svg>
