<svg width="1238" height="1481" viewBox="0 0 1238 1481" fill="none" xmlns="http://www.w3.org/2000/svg">
<path d="M437 1123V1134.5C437 1159.17 430.333 1181.67 417 1202C404 1222.33 386.5 1237.67 364.5 1248C386.5 1258.33 404 1273.67 417 1294C430.333 1314.33 437 1336.83 437 1361.5V1373H398V1361.5C398 1349.5 395.667 1338.33 391 1328C386.667 1317.33 380.5 1308.17 372.5 1300.5C364.833 1292.5 355.833 1286.33 345.5 1282C335.167 1277.33 324 1275 312 1275C300 1275 288.833 1277.33 278.5 1282C268.167 1286.33 259 1292.5 251 1300.5C243.333 1308.17 237.167 1317.33 232.5 1328C228.167 1338.33 226 1349.5 226 1361.5V1373H187V1361.5C187 1336.83 193.5 1314.33 206.5 1294C219.833 1273.67 237.5 1258.33 259.5 1248C237.5 1237.67 219.833 1222.33 206.5 1202C193.5 1181.67 187 1159.17 187 1134.5V1123H226V1134.5C226 1146.5 228.167 1157.67 232.5 1168C237.167 1178.33 243.333 1187.5 251 1195.5C259 1203.17 268.167 1209.33 278.5 1214C288.833 1218.33 300 1220.5 312 1220.5C324 1220.5 335.167 1218.33 345.5 1214C355.833 1209.33 364.833 1203.17 372.5 1195.5C380.5 1187.5 386.667 1178.33 391 1168C395.667 1157.67 398 1146.5 398 1134.5V1123H437ZM701 1373H662V1248C662 1237.33 660.167 1227.33 656.5 1218C653.167 1208.67 648.333 1200.33 642 1193C635.667 1185.33 628 1179 619 1174C610.333 1168.67 600.833 1165 590.5 1163C580.167 1161.33 570 1161.5 560 1163.5C550.333 1165.17 541.167 1168.5 532.5 1173.5C524.167 1178.5 516.667 1184.83 510 1192.5C503.667 1200.17 498.667 1209 495 1219C491.667 1229 490 1239 490 1249C490 1259 491.667 1268.67 495 1278C498.667 1287.33 503.667 1296 510 1304C516.667 1311.67 524.5 1318 533.5 1323C546.833 1330.33 561 1334 576 1334C588.667 1334 600.667 1331.33 612 1326C623.667 1320.67 633.833 1312.83 642.5 1302.5V1353.5C622.167 1366.5 599.833 1373 575.5 1373C559.833 1373 544.667 1370.17 530 1364.5C515.333 1358.83 502 1350.33 490 1339C479.667 1329.33 471.333 1318.33 465 1306C458.667 1293.67 454.5 1280.83 452.5 1267.5C450.5 1254.17 450.5 1240.67 452.5 1227C454.833 1213 459.5 1199.83 466.5 1187.5C477.833 1167.17 493.167 1151.33 512.5 1140C532.167 1128.67 553.167 1123 575.5 1123C592.833 1123 609 1126.33 624 1133C639.333 1139.33 652.667 1148.17 664 1159.5C675.333 1170.5 684.333 1183.67 691 1199C697.667 1214 701 1230.33 701 1248V1373ZM762.855 1162.5V1248C762.855 1260 765.022 1271.17 769.355 1281.5C774.022 1291.83 780.189 1301 787.855 1309C795.855 1316.67 805.022 1322.83 815.355 1327.5C825.689 1331.83 836.855 1334 848.855 1334V1373C831.522 1373 815.189 1369.83 799.855 1363.5C784.855 1356.83 771.689 1347.83 760.355 1336.5C749.022 1325.17 740.022 1312 733.355 1297C727.022 1281.67 723.855 1265.33 723.855 1248V984H762.855V1123.5H848.855V1162.5H762.855ZM1122.87 1373H1083.88V1248C1083.88 1237.33 1082.04 1227.33 1078.38 1218C1075.04 1208.67 1070.21 1200.33 1063.88 1193C1057.54 1185.33 1049.88 1179 1040.88 1174C1032.21 1168.67 1022.71 1165 1012.38 1163C1002.04 1161.33 991.875 1161.5 981.875 1163.5C972.208 1165.17 963.042 1168.5 954.375 1173.5C946.042 1178.5 938.542 1184.83 931.875 1192.5C925.542 1200.17 920.542 1209 916.875 1219C913.542 1229 911.875 1239 911.875 1249C911.875 1259 913.542 1268.67 916.875 1278C920.542 1287.33 925.542 1296 931.875 1304C938.542 1311.67 946.375 1318 955.375 1323C968.708 1330.33 982.875 1334 997.875 1334C1010.54 1334 1022.54 1331.33 1033.88 1326C1045.54 1320.67 1055.71 1312.83 1064.38 1302.5V1353.5C1044.04 1366.5 1021.71 1373 997.375 1373C981.708 1373 966.542 1370.17 951.875 1364.5C937.208 1358.83 923.875 1350.33 911.875 1339C901.542 1329.33 893.208 1318.33 886.875 1306C880.542 1293.67 876.375 1280.83 874.375 1267.5C872.375 1254.17 872.375 1240.67 874.375 1227C876.708 1213 881.375 1199.83 888.375 1187.5C899.708 1167.17 915.042 1151.33 934.375 1140C954.042 1128.67 975.042 1123 997.375 1123C1014.71 1123 1030.88 1126.33 1045.88 1133C1061.21 1139.33 1074.54 1148.17 1085.88 1159.5C1097.21 1170.5 1106.21 1183.67 1112.88 1199C1119.54 1214 1122.87 1230.33 1122.87 1248V1373Z" fill="white"/>
<path d="M945.799 957.57C1012.11 891.415 1056.48 808.697 1069.14 727.613C1081.8 646.528 1061.72 573.719 1013.32 525.204L763.298 774.642L945.799 957.57Z" fill="#06D6A0"/>
<path d="M292.101 959C225.791 892.845 181.425 810.127 168.762 729.042C156.1 647.958 176.178 575.149 224.58 526.633L474.603 776.071L292.101 959Z" fill="#FFBE0B"/>
<path d="M499.436 250.83C565.746 316.985 603.06 406.772 603.17 500.439C603.279 594.106 566.175 683.981 500.02 750.291L249.998 500.853L499.436 250.83Z" fill="#FF0075"/>
<path d="M250.022 500.89C183.712 434.735 146.398 344.948 146.288 251.281C146.179 157.614 183.283 67.7402 249.438 1.43016L499.46 250.868L250.022 500.89Z" fill="#FF0075"/>
<path d="M738.464 249.401C672.154 315.556 634.84 405.343 634.731 499.01C634.621 592.677 671.725 682.551 737.88 748.861L987.902 499.423L738.464 249.401Z" fill="#0076FF"/>
<path d="M987.876 499.461C1054.19 433.306 1091.5 343.519 1091.61 249.852C1091.72 156.185 1054.61 66.3105 988.46 0.000474692L738.438 249.438L987.876 499.461Z" fill="#0076FF"/>
</svg>
