<svg width="1513" height="522" viewBox="0 0 1513 522" fill="none" xmlns="http://www.w3.org/2000/svg">
<path d="M786 164V175.5C786 200.167 779.333 222.667 766 243C753 263.333 735.5 278.667 713.5 289C735.5 299.333 753 314.667 766 335C779.333 355.333 786 377.833 786 402.5V414H747V402.5C747 390.5 744.667 379.333 740 369C735.667 358.333 729.5 349.167 721.5 341.5C713.833 333.5 704.833 327.333 694.5 323C684.167 318.333 673 316 661 316C649 316 637.833 318.333 627.5 323C617.167 327.333 608 333.5 600 341.5C592.333 349.167 586.167 358.333 581.5 369C577.167 379.333 575 390.5 575 402.5V414H536V402.5C536 377.833 542.5 355.333 555.5 335C568.833 314.667 586.5 299.333 608.5 289C586.5 278.667 568.833 263.333 555.5 243C542.5 222.667 536 200.167 536 175.5V164H575V175.5C575 187.5 577.167 198.667 581.5 209C586.167 219.333 592.333 228.5 600 236.5C608 244.167 617.167 250.333 627.5 255C637.833 259.333 649 261.5 661 261.5C673 261.5 684.167 259.333 694.5 255C704.833 250.333 713.833 244.167 721.5 236.5C729.5 228.5 735.667 219.333 740 209C744.667 198.667 747 187.5 747 175.5V164H786ZM1050 414H1011V289C1011 278.333 1009.17 268.333 1005.5 259C1002.17 249.667 997.333 241.333 991 234C984.667 226.333 977 220 968 215C959.333 209.667 949.833 206 939.5 204C929.167 202.333 919 202.5 909 204.5C899.333 206.167 890.167 209.5 881.5 214.5C873.167 219.5 865.667 225.833 859 233.5C852.667 241.167 847.667 250 844 260C840.667 270 839 280 839 290C839 300 840.667 309.667 844 319C847.667 328.333 852.667 337 859 345C865.667 352.667 873.5 359 882.5 364C895.833 371.333 910 375 925 375C937.667 375 949.667 372.333 961 367C972.667 361.667 982.833 353.833 991.5 343.5V394.5C971.167 407.5 948.833 414 924.5 414C908.833 414 893.667 411.167 879 405.5C864.333 399.833 851 391.333 839 380C828.667 370.333 820.333 359.333 814 347C807.667 334.667 803.5 321.833 801.5 308.5C799.5 295.167 799.5 281.667 801.5 268C803.833 254 808.5 240.833 815.5 228.5C826.833 208.167 842.167 192.333 861.5 181C881.167 169.667 902.167 164 924.5 164C941.833 164 958 167.333 973 174C988.333 180.333 1001.67 189.167 1013 200.5C1024.33 211.5 1033.33 224.667 1040 240C1046.67 255 1050 271.333 1050 289V414ZM1111.86 203.5V289C1111.86 301 1114.02 312.167 1118.36 322.5C1123.02 332.833 1129.19 342 1136.86 350C1144.86 357.667 1154.02 363.833 1164.36 368.5C1174.69 372.833 1185.86 375 1197.86 375V414C1180.52 414 1164.19 410.833 1148.86 404.5C1133.86 397.833 1120.69 388.833 1109.36 377.5C1098.02 366.167 1089.02 353 1082.36 338C1076.02 322.667 1072.86 306.333 1072.86 289V25H1111.86V164.5H1197.86V203.5H1111.86ZM1471.87 414H1432.88V289C1432.88 278.333 1431.04 268.333 1427.38 259C1424.04 249.667 1419.21 241.333 1412.88 234C1406.54 226.333 1398.88 220 1389.88 215C1381.21 209.667 1371.71 206 1361.38 204C1351.04 202.333 1340.88 202.5 1330.88 204.5C1321.21 206.167 1312.04 209.5 1303.38 214.5C1295.04 219.5 1287.54 225.833 1280.88 233.5C1274.54 241.167 1269.54 250 1265.88 260C1262.54 270 1260.88 280 1260.88 290C1260.88 300 1262.54 309.667 1265.88 319C1269.54 328.333 1274.54 337 1280.88 345C1287.54 352.667 1295.38 359 1304.38 364C1317.71 371.333 1331.88 375 1346.88 375C1359.54 375 1371.54 372.333 1382.88 367C1394.54 361.667 1404.71 353.833 1413.38 343.5V394.5C1393.04 407.5 1370.71 414 1346.38 414C1330.71 414 1315.54 411.167 1300.88 405.5C1286.21 399.833 1272.88 391.333 1260.88 380C1250.54 370.333 1242.21 359.333 1235.88 347C1229.54 334.667 1225.38 321.833 1223.38 308.5C1221.38 295.167 1221.38 281.667 1223.38 268C1225.71 254 1230.38 240.833 1237.38 228.5C1248.71 208.167 1264.04 192.333 1283.38 181C1303.04 169.667 1324.04 164 1346.38 164C1363.71 164 1379.88 167.333 1394.88 174C1410.21 180.333 1423.54 189.167 1434.88 200.5C1446.21 211.5 1455.21 224.667 1461.88 240C1468.54 255 1471.87 271.333 1471.87 289V414Z" fill="white"/>
<path d="M343.39 460.482C367.44 436.488 383.532 406.487 388.124 377.079C392.717 347.67 385.435 321.263 367.879 303.667L277.199 394.136L343.39 460.482Z" fill="#06D6A0"/>
<path d="M106.299 461.001C82.2492 437.007 66.1579 407.006 61.5653 377.597C56.9727 348.189 64.2549 321.782 81.81 304.185L172.491 394.654L106.299 461.001Z" fill="#FFBE0B"/>
<path d="M181.498 204.154C205.548 228.148 219.082 260.713 219.121 294.685C219.161 328.657 205.704 361.254 181.71 385.304L91.0293 294.835L181.498 204.154Z" fill="#FF0075"/>
<path d="M91.038 294.849C66.988 270.855 53.4545 238.29 53.4148 204.318C53.375 170.346 66.8323 137.749 90.8261 113.699L181.507 204.168L91.038 294.849Z" fill="#FF0075"/>
<path d="M268.191 203.635C244.141 227.628 230.608 260.193 230.568 294.166C230.528 328.138 243.986 360.734 267.979 384.784L358.66 294.315L268.191 203.635Z" fill="#0076FF"/>
<path d="M358.651 294.33C382.701 270.336 396.234 237.771 396.274 203.799C396.314 169.827 382.857 137.231 358.863 113.181L268.182 203.649L358.651 294.33Z" fill="#0076FF"/>
</svg>
