<svg width="1682" height="587" viewBox="0 0 1682 587" fill="none" xmlns="http://www.w3.org/2000/svg">
<path d="M955 170V181.5C955 206.167 948.333 228.667 935 249C922 269.333 904.5 284.667 882.5 295C904.5 305.333 922 320.667 935 341C948.333 361.333 955 383.833 955 408.5V420H916V408.5C916 396.5 913.667 385.333 909 375C904.667 364.333 898.5 355.167 890.5 347.5C882.833 339.5 873.833 333.333 863.5 329C853.167 324.333 842 322 830 322C818 322 806.833 324.333 796.5 329C786.167 333.333 777 339.5 769 347.5C761.333 355.167 755.167 364.333 750.5 375C746.167 385.333 744 396.5 744 408.5V420H705V408.5C705 383.833 711.5 361.333 724.5 341C737.833 320.667 755.5 305.333 777.5 295C755.5 284.667 737.833 269.333 724.5 249C711.5 228.667 705 206.167 705 181.5V170H744V181.5C744 193.5 746.167 204.667 750.5 215C755.167 225.333 761.333 234.5 769 242.5C777 250.167 786.167 256.333 796.5 261C806.833 265.333 818 267.5 830 267.5C842 267.5 853.167 265.333 863.5 261C873.833 256.333 882.833 250.167 890.5 242.5C898.5 234.5 904.667 225.333 909 215C913.667 204.667 916 193.5 916 181.5V170H955ZM1219 420H1180V295C1180 284.333 1178.17 274.333 1174.5 265C1171.17 255.667 1166.33 247.333 1160 240C1153.67 232.333 1146 226 1137 221C1128.33 215.667 1118.83 212 1108.5 210C1098.17 208.333 1088 208.5 1078 210.5C1068.33 212.167 1059.17 215.5 1050.5 220.5C1042.17 225.5 1034.67 231.833 1028 239.5C1021.67 247.167 1016.67 256 1013 266C1009.67 276 1008 286 1008 296C1008 306 1009.67 315.667 1013 325C1016.67 334.333 1021.67 343 1028 351C1034.67 358.667 1042.5 365 1051.5 370C1064.83 377.333 1079 381 1094 381C1106.67 381 1118.67 378.333 1130 373C1141.67 367.667 1151.83 359.833 1160.5 349.5V400.5C1140.17 413.5 1117.83 420 1093.5 420C1077.83 420 1062.67 417.167 1048 411.5C1033.33 405.833 1020 397.333 1008 386C997.667 376.333 989.333 365.333 983 353C976.667 340.667 972.5 327.833 970.5 314.5C968.5 301.167 968.5 287.667 970.5 274C972.833 260 977.5 246.833 984.5 234.5C995.833 214.167 1011.17 198.333 1030.5 187C1050.17 175.667 1071.17 170 1093.5 170C1110.83 170 1127 173.333 1142 180C1157.33 186.333 1170.67 195.167 1182 206.5C1193.33 217.5 1202.33 230.667 1209 246C1215.67 261 1219 277.333 1219 295V420ZM1280.86 209.5V295C1280.86 307 1283.02 318.167 1287.36 328.5C1292.02 338.833 1298.19 348 1305.86 356C1313.86 363.667 1323.02 369.833 1333.36 374.5C1343.69 378.833 1354.86 381 1366.86 381V420C1349.52 420 1333.19 416.833 1317.86 410.5C1302.86 403.833 1289.69 394.833 1278.36 383.5C1267.02 372.167 1258.02 359 1251.36 344C1245.02 328.667 1241.86 312.333 1241.86 295V31H1280.86V170.5H1366.86V209.5H1280.86ZM1640.87 420H1601.88V295C1601.88 284.333 1600.04 274.333 1596.38 265C1593.04 255.667 1588.21 247.333 1581.88 240C1575.54 232.333 1567.88 226 1558.88 221C1550.21 215.667 1540.71 212 1530.38 210C1520.04 208.333 1509.88 208.5 1499.88 210.5C1490.21 212.167 1481.04 215.5 1472.38 220.5C1464.04 225.5 1456.54 231.833 1449.88 239.5C1443.54 247.167 1438.54 256 1434.88 266C1431.54 276 1429.88 286 1429.88 296C1429.88 306 1431.54 315.667 1434.88 325C1438.54 334.333 1443.54 343 1449.88 351C1456.54 358.667 1464.38 365 1473.38 370C1486.71 377.333 1500.88 381 1515.88 381C1528.54 381 1540.54 378.333 1551.88 373C1563.54 367.667 1573.71 359.833 1582.38 349.5V400.5C1562.04 413.5 1539.71 420 1515.38 420C1499.71 420 1484.54 417.167 1469.88 411.5C1455.21 405.833 1441.88 397.333 1429.88 386C1419.54 376.333 1411.21 365.333 1404.88 353C1398.54 340.667 1394.38 327.833 1392.38 314.5C1390.38 301.167 1390.38 287.667 1392.38 274C1394.71 260 1399.38 246.833 1406.38 234.5C1417.71 214.167 1433.04 198.333 1452.38 187C1472.04 175.667 1493.04 170 1515.38 170C1532.71 170 1548.88 173.333 1563.88 180C1579.21 186.333 1592.54 195.167 1603.88 206.5C1615.21 217.5 1624.21 230.667 1630.88 246C1637.54 261 1640.87 277.333 1640.87 295V420Z" fill="white"/>
<circle cx="293.5" cy="293.5" r="293.5" fill="white"/>
<path d="M417.39 466.482C441.441 442.488 457.532 412.487 462.124 383.079C466.717 353.67 459.435 327.263 441.88 309.667L351.199 400.136L417.39 466.482Z" fill="#06D6A0"/>
<path d="M180.299 467.001C156.249 443.007 140.158 413.006 135.566 383.597C130.973 354.189 138.255 327.782 155.81 310.185L246.491 400.654L180.299 467.001Z" fill="#FFBE0B"/>
<path d="M255.498 210.154C279.548 234.148 293.082 266.713 293.121 300.685C293.161 334.657 279.704 367.254 255.71 391.304L165.029 300.835L255.498 210.154Z" fill="#FF0075"/>
<path d="M165.038 300.849C140.988 276.855 127.455 244.29 127.415 210.318C127.375 176.346 140.833 143.749 164.826 119.699L255.507 210.168L165.038 300.849Z" fill="#FF0075"/>
<path d="M342.191 209.635C318.141 233.629 304.608 266.193 304.568 300.166C304.528 334.138 317.986 366.734 341.979 390.784L432.66 300.315L342.191 209.635Z" fill="#0076FF"/>
<path d="M432.651 300.33C456.701 276.336 470.235 243.771 470.274 209.799C470.314 175.827 456.857 143.231 432.863 119.181L342.182 209.649L432.651 300.33Z" fill="#0076FF"/>
</svg>
