<svg width="936" height="389" viewBox="0 0 936 389" fill="none" xmlns="http://www.w3.org/2000/svg">
<path d="M250 139V150.5C250 175.167 243.333 197.667 230 218C217 238.333 199.5 253.667 177.5 264C199.5 274.333 217 289.667 230 310C243.333 330.333 250 352.833 250 377.5V389H211V377.5C211 365.5 208.667 354.333 204 344C199.667 333.333 193.5 324.167 185.5 316.5C177.833 308.5 168.833 302.333 158.5 298C148.167 293.333 137 291 125 291C113 291 101.833 293.333 91.5 298C81.1667 302.333 72 308.5 64 316.5C56.3333 324.167 50.1667 333.333 45.5 344C41.1667 354.333 39 365.5 39 377.5V389H0V377.5C0 352.833 6.5 330.333 19.5 310C32.8333 289.667 50.5 274.333 72.5 264C50.5 253.667 32.8333 238.333 19.5 218C6.5 197.667 0 175.167 0 150.5V139H39V150.5C39 162.5 41.1667 173.667 45.5 184C50.1667 194.333 56.3333 203.5 64 211.5C72 219.167 81.1667 225.333 91.5 230C101.833 234.333 113 236.5 125 236.5C137 236.5 148.167 234.333 158.5 230C168.833 225.333 177.833 219.167 185.5 211.5C193.5 203.5 199.667 194.333 204 184C208.667 173.667 211 162.5 211 150.5V139H250ZM514 389H475V264C475 253.333 473.167 243.333 469.5 234C466.167 224.667 461.333 216.333 455 209C448.667 201.333 441 195 432 190C423.333 184.667 413.833 181 403.5 179C393.167 177.333 383 177.5 373 179.5C363.333 181.167 354.167 184.5 345.5 189.5C337.167 194.5 329.667 200.833 323 208.5C316.667 216.167 311.667 225 308 235C304.667 245 303 255 303 265C303 275 304.667 284.667 308 294C311.667 303.333 316.667 312 323 320C329.667 327.667 337.5 334 346.5 339C359.833 346.333 374 350 389 350C401.667 350 413.667 347.333 425 342C436.667 336.667 446.833 328.833 455.5 318.5V369.5C435.167 382.5 412.833 389 388.5 389C372.833 389 357.667 386.167 343 380.5C328.333 374.833 315 366.333 303 355C292.667 345.333 284.333 334.333 278 322C271.667 309.667 267.5 296.833 265.5 283.5C263.5 270.167 263.5 256.667 265.5 243C267.833 229 272.5 215.833 279.5 203.5C290.833 183.167 306.167 167.333 325.5 156C345.167 144.667 366.167 139 388.5 139C405.833 139 422 142.333 437 149C452.333 155.333 465.667 164.167 477 175.5C488.333 186.5 497.333 199.667 504 215C510.667 230 514 246.333 514 264V389ZM575.855 178.5V264C575.855 276 578.022 287.167 582.355 297.5C587.022 307.833 593.189 317 600.855 325C608.855 332.667 618.022 338.833 628.355 343.5C638.689 347.833 649.855 350 661.855 350V389C644.522 389 628.189 385.833 612.855 379.5C597.855 372.833 584.689 363.833 573.355 352.5C562.022 341.167 553.022 328 546.355 313C540.022 297.667 536.855 281.333 536.855 264V-2.83718e-05H575.855V139.5H661.855V178.5H575.855ZM935.875 389H896.875V264C896.875 253.333 895.042 243.333 891.375 234C888.042 224.667 883.208 216.333 876.875 209C870.542 201.333 862.875 195 853.875 190C845.208 184.667 835.708 181 825.375 179C815.042 177.333 804.875 177.5 794.875 179.5C785.208 181.167 776.042 184.5 767.375 189.5C759.042 194.5 751.542 200.833 744.875 208.5C738.542 216.167 733.542 225 729.875 235C726.542 245 724.875 255 724.875 265C724.875 275 726.542 284.667 729.875 294C733.542 303.333 738.542 312 744.875 320C751.542 327.667 759.375 334 768.375 339C781.708 346.333 795.875 350 810.875 350C823.542 350 835.542 347.333 846.875 342C858.542 336.667 868.708 328.833 877.375 318.5V369.5C857.042 382.5 834.708 389 810.375 389C794.708 389 779.542 386.167 764.875 380.5C750.208 374.833 736.875 366.333 724.875 355C714.542 345.333 706.208 334.333 699.875 322C693.542 309.667 689.375 296.833 687.375 283.5C685.375 270.167 685.375 256.667 687.375 243C689.708 229 694.375 215.833 701.375 203.5C712.708 183.167 728.042 167.333 747.375 156C767.042 144.667 788.042 139 810.375 139C827.708 139 843.875 142.333 858.875 149C874.208 155.333 887.542 164.167 898.875 175.5C910.208 186.5 919.208 199.667 925.875 215C932.542 230 935.875 246.333 935.875 264V389Z" fill="white"/>
</svg>
