<svg width="1682" height="587" viewBox="0 0 1682 587" fill="none" xmlns="http://www.w3.org/2000/svg">
<path d="M916 170.001V181.501C916 229.001 877.5 267.501 830 267.501C782.5 267.501 744 229.001 744 181.501V170.001H705V181.501C705 230.501 733.5 274.501 777.5 295.001C733.5 315.501 705 359.501 705 408.501V420.001H744V408.501C744 361.001 782.5 322.001 830 322.001C877.5 322.001 916 361.001 916 408.501V420.001H955V408.501C955 359.501 926.5 315.501 882.5 295.001C926.5 274.501 955 230.501 955 181.501V170.001H916ZM1219 295.001C1219 225.001 1162.5 170.001 1093.5 170.001C1049 170.001 1007 194.001 984.5 234.501C957 284.501 966.5 347.001 1008 386.001C1032 408.501 1062.5 420.001 1093.5 420.001C1117 420.001 1140 413.501 1160.5 400.501V349.501C1143.5 370.001 1119 381.001 1094 381.001C1079.5 381.001 1065 377.501 1051.5 370.001C1015 349.501 999 305.501 1013 266.001C1027 226.501 1067.5 203.001 1108.5 210.001C1150 217.501 1180 253.001 1180 295.001V420.001H1219V295.001ZM1366.86 209.501V170.501H1280.86V31.0008H1241.86V295.001C1241.86 364.001 1297.86 420.001 1366.86 420.001V381.001C1319.36 381.001 1280.86 342.501 1280.86 295.001V209.501H1366.86ZM1640.87 295.001C1640.87 225.001 1584.38 170.001 1515.38 170.001C1470.88 170.001 1428.88 194.001 1406.38 234.501C1378.88 284.501 1388.38 347.001 1429.88 386.001C1453.88 408.501 1484.38 420.001 1515.38 420.001C1538.88 420.001 1561.88 413.501 1582.38 400.501V349.501C1565.38 370.001 1540.88 381.001 1515.88 381.001C1501.38 381.001 1486.88 377.501 1473.38 370.001C1436.88 349.501 1420.88 305.501 1434.88 266.001C1448.88 226.501 1489.38 203.001 1530.38 210.001C1571.88 217.501 1601.88 253.001 1601.88 295.001V420.001H1640.87V295.001Z" fill="white"/>
<circle cx="293.5" cy="293.501" r="293.5" fill="white"/>
<path d="M417.39 466.482C441.441 442.489 457.532 412.487 462.124 383.079C466.717 353.67 459.435 327.263 441.88 309.667L351.199 400.136L417.39 466.482Z" fill="#06D6A0"/>
<path d="M180.299 467.001C156.249 443.007 140.158 413.006 135.566 383.597C130.973 354.189 138.255 327.782 155.81 310.186L246.491 400.654L180.299 467.001Z" fill="#FFBE0B"/>
<path fill-rule="evenodd" clip-rule="evenodd" d="M127.415 210.319C127.455 244.291 140.988 276.856 165.038 300.849L165.041 300.847L255.71 391.304C279.704 367.254 293.161 334.658 293.121 300.686C293.082 266.714 279.548 234.149 255.498 210.155L255.496 210.157L164.826 119.7C140.833 143.75 127.375 176.346 127.415 210.319Z" fill="#FF0075"/>
<path fill-rule="evenodd" clip-rule="evenodd" d="M470.274 209.8C470.235 243.772 456.701 276.337 432.651 300.331L432.648 300.328L341.979 390.785C317.986 366.735 304.528 334.138 304.568 300.166C304.608 266.194 318.141 233.629 342.191 209.635L342.194 209.638L432.863 119.181C456.857 143.231 470.314 175.828 470.274 209.8Z" fill="#0076FF"/>
</svg>
