<svg width="1576" height="522" viewBox="0 0 1576 522" fill="none" xmlns="http://www.w3.org/2000/svg">
<path d="M810 164V175.5C810 223 771.5 261.5 724 261.5C676.5 261.5 638 223 638 175.5V164H599V175.5C599 224.5 627.5 268.5 671.5 289C627.5 309.5 599 353.5 599 402.5V414H638V402.5C638 355 676.5 316 724 316C771.5 316 810 355 810 402.5V414H849V402.5C849 353.5 820.5 309.5 776.5 289C820.5 268.5 849 224.5 849 175.5V164H810ZM1113 289C1113 219 1056.5 164 987.5 164C943 164 901 188 878.5 228.5C851 278.5 860.5 341 902 380C926 402.5 956.5 414 987.5 414C1011 414 1034 407.5 1054.5 394.5V343.5C1037.5 364 1013 375 988 375C973.5 375 959 371.5 945.5 364C909 343.5 893 299.5 907 260C921 220.5 961.5 197 1002.5 204C1044 211.5 1074 247 1074 289V414H1113V289ZM1260.86 203.5V164.5H1174.86V25H1135.86V289C1135.86 358 1191.86 414 1260.86 414V375C1213.36 375 1174.86 336.5 1174.86 289V203.5H1260.86ZM1534.87 289C1534.87 219 1478.38 164 1409.38 164C1364.88 164 1322.88 188 1300.38 228.5C1272.88 278.5 1282.38 341 1323.88 380C1347.88 402.5 1378.38 414 1409.38 414C1432.88 414 1455.88 407.5 1476.38 394.5V343.5C1459.38 364 1434.88 375 1409.88 375C1395.38 375 1380.88 371.5 1367.38 364C1330.88 343.5 1314.88 299.5 1328.88 260C1342.88 220.5 1383.38 197 1424.38 204C1465.88 211.5 1495.88 247 1495.88 289V414H1534.87V289Z" fill="white"/>
<path d="M389.431 497.611C421.673 465.443 443.246 425.222 449.403 385.796C455.56 346.369 445.797 310.966 422.262 287.376L300.691 408.663L389.431 497.611Z" fill="#06D6A0"/>
<path d="M71.5738 498.306C39.331 466.138 17.7582 425.917 11.6011 386.49C5.44395 347.064 15.2069 311.661 38.7422 288.07L160.314 409.358L71.5738 498.306Z" fill="#FFBB00"/>
<path d="M0.673946 154.184C0.727229 199.729 18.8709 243.387 51.1137 275.554L51.1168 275.551L172.673 396.823C204.84 364.58 222.882 320.88 222.829 275.335C222.775 229.79 204.632 186.132 172.389 153.964L172.386 153.967L50.8296 32.6953C18.6622 64.9381 0.620662 108.639 0.673946 154.184Z" fill="#FF0075"/>
<path d="M460.329 153.488C460.276 199.033 442.132 242.692 409.89 274.859L409.886 274.855L288.33 396.127C256.163 363.884 238.121 320.183 238.175 274.638C238.228 229.094 256.372 185.435 288.614 153.268L288.618 153.271L410.174 32C442.341 64.2428 460.383 107.943 460.329 153.488Z" fill="#0076FF"/>
</svg>
